<svg width="84" height="84" viewBox="0 0 84 84" fill="none" xmlns="http://www.w3.org/2000/svg">
<path d="M24.8182 0C11.1347 0 0 11.1347 0 24.8182V59.1818C0 72.8653 11.1347 84 24.8182 84H59.1818C72.8653 84 84 72.8653 84 59.1818V24.8182C84 11.1347 72.8653 0 59.1818 0H24.8182ZM24.8182 3.81818H59.1818C70.8015 3.81818 80.1818 13.1985 80.1818 24.8182V59.1818C80.1818 70.8015 70.8015 80.1818 59.1818 80.1818H24.8182C13.1985 80.1818 3.81818 70.8015 3.81818 59.1818V24.8182C3.81818 13.1985 13.1985 3.81818 24.8182 3.81818ZM64.9091 15.2727C63.8964 15.2727 62.9253 15.675 62.2092 16.391C61.4932 17.1071 61.0909 18.0783 61.0909 19.0909C61.0909 20.1036 61.4932 21.0747 62.2092 21.7908C62.9253 22.5068 63.8964 22.9091 64.9091 22.9091C65.9217 22.9091 66.8929 22.5068 67.609 21.7908C68.325 21.0747 68.7273 20.1036 68.7273 19.0909C68.7273 18.0783 68.325 17.1071 67.609 16.391C66.8929 15.675 65.9217 15.2727 64.9091 15.2727ZM42 21C30.4246 21 21 30.4246 21 42C21 53.5754 30.4246 63 42 63C53.5754 63 63 53.5754 63 42C63 30.4246 53.5754 21 42 21ZM42 24.8182C51.5119 24.8182 59.1818 32.4881 59.1818 42C59.1818 51.5119 51.5119 59.1818 42 59.1818C32.4881 59.1818 24.8182 51.5119 24.8182 42C24.8182 32.4881 32.4881 24.8182 42 24.8182Z" fill="white"/>
</svg>
