<svg width="523" height="49" viewBox="0 0 523 49" fill="none" xmlns="http://www.w3.org/2000/svg">
<path d="M0.03125 1.45454H15.7585L26.5767 27.8182H27.1222L37.9403 1.45454H53.6676V48H41.304V21.0909H40.9403L30.5767 47.6364H23.1222L12.7585 20.9091H12.3949V48H0.03125V1.45454ZM72.2926 1.45454V48H59.6562V1.45454H72.2926ZM91.8267 1.45454L99.4631 15H99.8267L107.554 1.45454H121.645L107.736 24.7273L122.19 48H107.736L99.8267 34.1818H99.4631L91.554 48H77.1903L91.4631 24.7273L77.6449 1.45454H91.8267ZM127.276 48V41L149.276 11.6364H127.366V1.45454H165.366V8.45454L143.366 37.8182H165.276V48H127.276ZM214.435 24.7273C214.435 29.9091 213.427 34.2803 211.412 37.8409C209.397 41.3864 206.677 44.0758 203.253 45.9091C199.829 47.7273 196.01 48.6364 191.798 48.6364C187.556 48.6364 183.723 47.7197 180.298 45.8864C176.889 44.0379 174.177 41.3409 172.162 37.7955C170.162 34.2348 169.162 29.8788 169.162 24.7273C169.162 19.5455 170.162 15.1818 172.162 11.6364C174.177 8.07576 176.889 5.38636 180.298 3.56818C183.723 1.73485 187.556 0.81818 191.798 0.81818C196.01 0.81818 199.829 1.73485 203.253 3.56818C206.677 5.38636 209.397 8.07576 211.412 11.6364C213.427 15.1818 214.435 19.5455 214.435 24.7273ZM201.435 24.7273C201.435 21.9394 201.063 19.5909 200.321 17.6818C199.594 15.7576 198.51 14.303 197.071 13.3182C195.647 12.3182 193.889 11.8182 191.798 11.8182C189.707 11.8182 187.942 12.3182 186.503 13.3182C185.079 14.303 183.995 15.7576 183.253 17.6818C182.526 19.5909 182.162 21.9394 182.162 24.7273C182.162 27.5152 182.526 29.8712 183.253 31.7955C183.995 33.7045 185.079 35.1591 186.503 36.1591C187.942 37.1439 189.707 37.6364 191.798 37.6364C193.889 37.6364 195.647 37.1439 197.071 36.1591C198.51 35.1591 199.594 33.7045 200.321 31.7955C201.063 29.8712 201.435 27.5152 201.435 24.7273ZM215.122 1.45454H229.213L238.304 20.3636H238.668L247.759 1.45454H261.849L244.759 33.3636V48H232.213V33.3636L215.122 1.45454ZM303.81 16C303.688 14.4848 303.12 13.303 302.105 12.4545C301.105 11.6061 299.582 11.1818 297.537 11.1818C296.234 11.1818 295.166 11.3409 294.332 11.6591C293.514 11.9621 292.908 12.3788 292.514 12.9091C292.12 13.4394 291.916 14.0455 291.901 14.7273C291.87 15.2879 291.969 15.7955 292.196 16.25C292.438 16.6894 292.817 17.0909 293.332 17.4545C293.848 17.803 294.507 18.1212 295.31 18.4091C296.113 18.697 297.067 18.9545 298.173 19.1818L301.991 20C304.567 20.5455 306.772 21.2652 308.605 22.1591C310.438 23.053 311.938 24.1061 313.105 25.3182C314.272 26.5152 315.128 27.8636 315.673 29.3636C316.234 30.8636 316.522 32.5 316.537 34.2727C316.522 37.3333 315.757 39.9242 314.241 42.0455C312.726 44.1667 310.56 45.7803 307.741 46.8864C304.938 47.9924 301.567 48.5455 297.628 48.5455C293.582 48.5455 290.052 47.947 287.037 46.75C284.037 45.553 281.704 43.7121 280.037 41.2273C278.385 38.7273 277.552 35.5303 277.537 31.6364H289.537C289.613 33.0606 289.969 34.2576 290.605 35.2273C291.241 36.197 292.135 36.9318 293.287 37.4318C294.454 37.9318 295.84 38.1818 297.446 38.1818C298.795 38.1818 299.923 38.0152 300.832 37.6818C301.741 37.3485 302.431 36.8864 302.901 36.2955C303.37 35.7045 303.613 35.0303 303.628 34.2727C303.613 33.5606 303.378 32.9394 302.923 32.4091C302.484 31.8636 301.757 31.3788 300.741 30.9545C299.726 30.5152 298.355 30.1061 296.628 29.7273L291.991 28.7273C287.87 27.8333 284.62 26.3409 282.241 24.25C279.878 22.1439 278.704 19.2727 278.719 15.6364C278.704 12.6818 279.491 10.0985 281.082 7.88636C282.688 5.65909 284.908 3.92424 287.741 2.68182C290.59 1.43939 293.855 0.81818 297.537 0.81818C301.295 0.81818 304.545 1.44697 307.287 2.70454C310.029 3.96212 312.143 5.73485 313.628 8.02273C315.128 10.2955 315.885 12.9545 315.901 16H303.81ZM320.071 11.6364V1.45454H360.526V11.6364H346.526V48H334.071V11.6364H320.071ZM392.827 1.45454H405.463V31.2727C405.463 34.8182 404.615 37.8864 402.918 40.4773C401.236 43.053 398.887 45.0455 395.872 46.4545C392.857 47.8485 389.357 48.5455 385.372 48.5455C381.357 48.5455 377.842 47.8485 374.827 46.4545C371.812 45.0455 369.463 43.053 367.781 40.4773C366.115 37.8864 365.281 34.8182 365.281 31.2727V1.45454H377.918V30.1818C377.918 31.6212 378.236 32.9091 378.872 34.0455C379.509 35.1667 380.387 36.0455 381.509 36.6818C382.645 37.3182 383.933 37.6364 385.372 37.6364C386.827 37.6364 388.115 37.3182 389.236 36.6818C390.357 36.0455 391.236 35.1667 391.872 34.0455C392.509 32.9091 392.827 31.6212 392.827 30.1818V1.45454ZM429.378 48H411.469V1.45454H429.196C433.984 1.45454 438.12 2.38636 441.605 4.25C445.105 6.09848 447.802 8.76515 449.696 12.25C451.605 15.7197 452.56 19.8788 452.56 24.7273C452.56 29.5758 451.613 33.7424 449.719 37.2273C447.825 40.697 445.143 43.3636 441.673 45.2273C438.204 47.0758 434.105 48 429.378 48ZM424.105 37.2727H428.923C431.226 37.2727 433.188 36.9015 434.81 36.1591C436.446 35.4167 437.688 34.1364 438.537 32.3182C439.401 30.5 439.832 27.9697 439.832 24.7273C439.832 21.4848 439.393 18.9545 438.514 17.1364C437.651 15.3182 436.378 14.0379 434.696 13.2955C433.029 12.553 430.984 12.1818 428.56 12.1818H424.105V37.2727ZM471.043 1.45454V48H458.406V1.45454H471.043ZM522.122 24.7273C522.122 29.9091 521.115 34.2803 519.099 37.8409C517.084 41.3864 514.365 44.0758 510.94 45.9091C507.516 47.7273 503.698 48.6364 499.486 48.6364C495.243 48.6364 491.41 47.7197 487.986 45.8864C484.577 44.0379 481.865 41.3409 479.849 37.7955C477.849 34.2348 476.849 29.8788 476.849 24.7273C476.849 19.5455 477.849 15.1818 479.849 11.6364C481.865 8.07576 484.577 5.38636 487.986 3.56818C491.41 1.73485 495.243 0.81818 499.486 0.81818C503.698 0.81818 507.516 1.73485 510.94 3.56818C514.365 5.38636 517.084 8.07576 519.099 11.6364C521.115 15.1818 522.122 19.5455 522.122 24.7273ZM509.122 24.7273C509.122 21.9394 508.751 19.5909 508.009 17.6818C507.281 15.7576 506.198 14.303 504.759 13.3182C503.334 12.3182 501.577 11.8182 499.486 11.8182C497.395 11.8182 495.63 12.3182 494.19 13.3182C492.766 14.303 491.683 15.7576 490.94 17.6818C490.213 19.5909 489.849 21.9394 489.849 24.7273C489.849 27.5152 490.213 29.8712 490.94 31.7955C491.683 33.7045 492.766 35.1591 494.19 36.1591C495.63 37.1439 497.395 37.6364 499.486 37.6364C501.577 37.6364 503.334 37.1439 504.759 36.1591C506.198 35.1591 507.281 33.7045 508.009 31.7955C508.751 29.8712 509.122 27.5152 509.122 24.7273Z" fill="url(#paint0_radial_55_65)"/>
<defs>
<radialGradient id="paint0_radial_55_65" cx="0" cy="0" r="1" gradientUnits="userSpaceOnUse" gradientTransform="translate(622.139 21.0001) rotate(167.405) scale(770 3187.45)">
<stop stop-color="white"/>
<stop offset="0.9375" stop-color="#8881B8"/>
</radialGradient>
</defs>
</svg>
