<svg width="84" height="84" viewBox="0 0 84 84" fill="none" xmlns="http://www.w3.org/2000/svg">
<path id="Vector" d="M42 0C18.8257 0 0 18.8257 0 42C0 65.1743 18.8257 84 42 84C65.1743 84 84 65.1743 84 42C84 18.8257 65.1743 0 42 0ZM42 3.65217C63.2006 3.65217 80.3478 20.7995 80.3478 42C80.3478 63.2006 63.2006 80.3478 42 80.3478C20.7994 80.3478 3.65217 63.2006 3.65217 42C3.65217 20.7995 20.7994 3.65217 42 3.65217ZM58.5953 21.9772C57.3462 21.9772 55.9428 22.2665 54.3011 22.8582C51.7519 23.7767 21.7683 36.5074 18.3572 37.9555C16.4069 38.7845 12.7755 40.3267 12.7755 44.0044C12.7755 46.4422 14.204 48.1859 17.0161 49.1902C18.5281 49.7289 22.1192 50.8174 24.2028 51.3908C25.0866 51.6337 26.0258 51.7582 26.9918 51.7582C28.8818 51.7582 30.7839 51.2872 32.2739 50.4564C32.2612 50.7631 32.2695 51.0732 32.306 51.3837C32.5307 53.3011 33.713 55.1045 35.466 56.2092C36.6128 56.9324 45.9796 63.2085 47.3784 64.2055C49.3433 65.6098 51.5154 66.3526 53.6556 66.3526C57.746 66.3526 59.1183 62.1292 59.7794 60.1004C60.7381 57.1549 64.328 33.2022 64.7334 28.9784C65.0091 26.0841 63.8028 23.7007 61.5056 22.6014C60.6455 22.1869 59.6635 21.9772 58.5953 21.9772ZM58.5953 25.6294C59.0975 25.6294 59.5458 25.7125 59.9256 25.8969C60.7894 26.3114 61.2288 27.2355 61.0954 28.6325C60.6535 33.2397 57.0724 56.6251 56.3091 58.9698C55.6554 60.9748 54.9667 62.7004 53.6556 62.7004C52.3444 62.7004 50.9121 62.2408 49.5005 61.231C48.0889 60.223 38.7154 53.9369 37.4134 53.117C36.2721 52.3975 35.0642 50.604 36.7643 48.8692C38.1649 47.4412 48.7891 37.1297 49.6967 36.2221C50.3723 35.5447 50.0564 34.7278 49.3935 34.7278C49.1653 34.7278 48.8919 34.824 48.6089 35.0559C47.4986 35.9634 32.02 46.321 30.6797 47.1537C29.7922 47.7052 28.418 48.1024 26.9918 48.1024C26.3838 48.1024 25.7681 48.0295 25.1765 47.867C23.1166 47.2991 19.6308 46.2415 18.2466 45.7485C16.9154 45.2737 16.4312 44.8189 16.4312 44.0044C16.4312 42.8467 18.0654 42.0475 19.7874 41.3152C21.6061 40.5428 53.0772 27.1784 55.5387 26.2928C56.6782 25.8801 57.7206 25.6294 58.5953 25.6294Z" fill="white"/>
</svg>
