<svg width="372" height="287" viewBox="0 0 372 287" fill="none" xmlns="http://www.w3.org/2000/svg">
<g filter="url(#filter0_di_208_829)">
<path d="M319.646 217.887L306.282 191.75L292.917 165.637L279.552 139.5L266.188 113.387L252.823 87.25L239.469 61.125H239.459L226.094 35L212.74 61.125H212.729L199.365 87.25L186.011 113.375L172.646 87.25L159.282 61.125H159.271L145.917 35L132.552 61.125L119.199 87.25L105.834 113.375L92.4695 139.5L65.7402 191.75L52.3756 217.875L39 244H65.7293L105.823 165.625L119.177 139.5H119.188L132.552 113.375L145.906 87.25H145.917L159.271 113.375H159.282L145.917 139.5L132.552 165.625L145.906 191.75L159.271 217.875H159.282L172.635 244H199.376L212.729 217.887L212.74 217.875L226.105 191.762L239.459 165.637L226.094 139.5L212.729 113.387L212.74 113.375L226.105 87.25L239.459 113.375L252.823 139.5H252.834L266.188 165.625L279.541 191.75H279.552L292.906 217.875H292.917L306.271 244H333L319.635 217.887H319.646ZM212.729 165.625L199.376 191.75L186.022 217.875H186.011L172.657 191.762L172.646 191.75L159.293 165.625L172.646 139.5L186.011 165.625H186.022L199.387 139.5L212.74 165.625H212.729Z" fill="white"/>
</g>
<defs>
<filter id="filter0_di_208_829" x="0" y="0" width="372" height="287" filterUnits="userSpaceOnUse" color-interpolation-filters="sRGB">
<feFlood flood-opacity="0" result="BackgroundImageFix"/>
<feColorMatrix in="SourceAlpha" type="matrix" values="0 0 0 0 0 0 0 0 0 0 0 0 0 0 0 0 0 0 127 0" result="hardAlpha"/>
<feOffset dy="4"/>
<feGaussianBlur stdDeviation="19.5"/>
<feComposite in2="hardAlpha" operator="out"/>
<feColorMatrix type="matrix" values="0 0 0 0 1 0 0 0 0 1 0 0 0 0 1 0 0 0 0.72 0"/>
<feBlend mode="normal" in2="BackgroundImageFix" result="effect1_dropShadow_208_829"/>
<feBlend mode="normal" in="SourceGraphic" in2="effect1_dropShadow_208_829" result="shape"/>
<feColorMatrix in="SourceAlpha" type="matrix" values="0 0 0 0 0 0 0 0 0 0 0 0 0 0 0 0 0 0 127 0" result="hardAlpha"/>
<feOffset dy="-1"/>
<feGaussianBlur stdDeviation="2"/>
<feComposite in2="hardAlpha" operator="arithmetic" k2="-1" k3="1"/>
<feColorMatrix type="matrix" values="0 0 0 0 0 0 0 0 0 0 0 0 0 0 0 0 0 0 0.75 0"/>
<feBlend mode="normal" in2="shape" result="effect2_innerShadow_208_829"/>
</filter>
</defs>
</svg>
