<svg width="80" height="81" viewBox="0 0 80 81" fill="none" xmlns="http://www.w3.org/2000/svg">
<path d="M9.52381 0C4.28664 0 0 4.34022 0 9.64286V71.3571C0 76.6598 4.28664 81 9.52381 81H70.4762C75.7134 81 80 76.6598 80 71.3571V9.64286C80 4.34022 75.7134 0 70.4762 0H9.52381ZM9.52381 3.85714H70.4762C73.6543 3.85714 76.1905 6.42507 76.1905 9.64286V71.3571C76.1905 74.5749 73.6543 77.1429 70.4762 77.1429H9.52381C6.34574 77.1429 3.80952 74.5749 3.80952 71.3571V9.64286C3.80952 6.42507 6.34574 3.85714 9.52381 3.85714ZM36.9457 23.1278C34.9314 23.1231 33.1353 23.2371 31.529 24.0356L31.5253 24.0393C30.7422 24.43 30.1902 24.9262 29.7507 25.5159C29.531 25.8108 29.3059 26.0754 29.1853 26.7476C29.125 27.0837 29.0911 27.6284 29.4382 28.2167C29.7854 28.805 30.4834 29.1395 30.9301 29.1998C31.2403 29.2416 31.9406 29.5434 32.0052 29.633L32.0089 29.6405C32.0089 29.6405 32.2805 30.3579 32.3586 30.9965C32.4368 31.6351 32.433 32.1529 32.433 32.1529C32.4322 32.2044 32.4335 32.2559 32.4368 32.3073C32.4368 32.3073 32.5471 33.9805 32.474 35.7087C32.4448 36.3975 32.3568 37.0103 32.2656 37.5582C31.5873 36.7999 30.5878 35.4268 29.1443 32.895C27.543 30.0846 26.2686 27.565 26.2686 27.565C26.2017 27.3455 25.965 26.6625 25.0409 25.9754C24.0308 25.2216 23.0543 25.1091 23.0543 25.1091C22.9318 25.0842 22.8072 25.0716 22.6823 25.0714L15.1749 25.0752C15.1749 25.0752 14.7247 25.0488 14.1853 25.1242C13.6458 25.1995 12.8335 25.2608 12.0499 26.2015L12.0461 26.2052C11.3458 27.0525 11.3881 27.989 11.4732 28.518C11.5583 29.047 11.7485 29.4484 11.7485 29.4484C11.7522 29.4559 11.7559 29.4635 11.7597 29.471C11.7597 29.471 17.9004 42.5433 24.84 50.2408C29.8794 55.8298 35.0519 55.9248 39.3192 55.9248H42.5037C43.3167 55.9248 44.0521 55.8926 44.8661 55.4125C45.68 54.9324 46.2277 53.7636 46.2277 52.9528C46.2277 52.1033 46.353 51.4354 46.5067 51.0921C46.6148 50.8506 46.7004 50.7637 46.8341 50.6928C46.8623 50.711 46.8441 50.7004 46.9234 50.7568C47.2404 50.9826 47.764 51.4973 48.3333 52.1392C49.4719 53.4232 50.7643 55.1842 52.5 56.3919C53.7435 57.2578 54.918 57.6423 55.811 57.7818C56.3705 57.8692 56.805 57.8524 57.1131 57.827L64.2262 57.8571C64.2684 57.8573 64.3106 57.8561 64.3527 57.8534C64.3527 57.8534 65.5783 57.8678 66.8527 57.0963C67.4899 56.7104 68.2414 55.9789 68.4859 54.9116C68.7304 53.8442 68.4231 52.7382 67.8237 51.7287V51.7249C67.9278 51.8996 67.7294 51.5406 67.526 51.2051C67.3227 50.8696 67.0274 50.4175 66.6034 49.8566C65.7555 48.7348 64.3975 47.165 62.2024 45.0954H62.1987C61.0838 44.0451 60.3309 43.3015 60.0223 42.8881C59.7137 42.4747 59.815 42.6919 59.8363 42.5868C59.879 42.3766 61.2171 40.4222 63.9397 36.7408C65.5948 34.5 66.7563 32.8177 67.5223 31.4184C68.2884 30.0191 68.8407 28.8072 68.4561 27.3239L68.4524 27.3164C68.2816 26.6653 67.8153 26.0651 67.3363 25.7381C66.8574 25.4112 66.4033 25.2833 65.997 25.2033C65.1845 25.0432 64.4754 25.0714 63.817 25.0714C62.4365 25.0714 56.3114 25.1204 55.8073 25.1204C55.2116 25.1204 54.2266 25.3947 53.7909 25.659C52.6955 26.3265 52.381 27.2034 52.381 27.2034C52.3611 27.2404 52.3425 27.2781 52.3251 27.3164C52.3251 27.3164 51.0617 30.1532 49.4345 32.9552C47.7862 35.7974 46.5685 37.153 45.8333 37.7804C45.8131 37.6688 45.8166 37.7594 45.8036 37.6034C45.7377 36.8097 45.811 35.7129 45.811 34.6427C45.811 31.7604 46.0523 29.7432 45.9226 27.9605C45.8578 27.0692 45.6947 26.15 45.1153 25.305C44.5359 24.4599 43.5719 23.9109 42.619 23.6777C42.0473 23.5381 41.3956 23.1749 39.0365 23.1504H39.0327C38.3113 23.1431 37.6171 23.1294 36.9457 23.1278ZM38.9955 27.0075C41.0831 27.0292 40.5631 27.1456 41.7225 27.4294C42.082 27.5174 41.9949 27.5169 41.9866 27.5047C41.9782 27.4926 42.0839 27.6915 42.1243 28.2468C42.2051 29.3575 42.0015 31.5657 42.0015 34.6427C42.0015 35.4818 41.9015 36.6791 42.0052 37.9273C42.1088 39.1755 42.4146 40.7773 43.8876 41.743C44.5859 42.2013 45.3967 42.2302 46.09 42.0557C46.7834 41.8811 47.4124 41.5176 48.0729 40.9821C49.3939 39.9112 50.8674 38.1037 52.7195 34.9102C54.4506 31.9292 55.7097 29.0905 55.7515 28.9964C55.7597 28.9897 55.7679 28.9852 55.7775 28.9775C55.8013 28.9778 55.7767 28.9775 55.8073 28.9775C56.5184 28.9775 62.5308 28.9286 63.817 28.9286C64.1172 28.9286 64.2265 28.9469 64.4643 28.9549C64.3997 29.1734 64.4715 29.034 64.189 29.5501C63.5965 30.6324 62.5046 32.2408 60.8891 34.428C58.2346 38.0173 56.5893 39.4238 56.1049 41.8071C55.8627 42.9987 56.3166 44.3196 56.9829 45.2122C57.6491 46.1048 58.4901 46.8696 59.6057 47.9205C61.6715 49.8682 62.8834 51.2832 63.5789 52.2033C63.9266 52.6633 64.1458 52.9956 64.282 53.2203C64.4182 53.445 64.3845 53.4213 64.561 53.7175C64.6772 53.9146 64.6344 53.7943 64.654 53.8531C64.4256 53.9183 64.1489 53.9968 64.1332 54L57.128 53.9699C57.0018 53.9698 56.8759 53.9824 56.7522 54.0075C56.7522 54.0075 56.7698 54.0284 56.3951 53.9699C56.0204 53.9113 55.4244 53.7472 54.6577 53.2128C53.7325 52.569 52.4372 50.9938 51.1682 49.5628C50.5336 48.8473 49.9008 48.1601 49.1146 47.6003C48.3283 47.0405 47.1518 46.5141 45.8817 46.9185C44.5632 47.3377 43.5369 48.3796 43.0357 49.4987C42.6627 50.3318 42.6325 51.202 42.5744 52.0677C42.5112 52.0725 42.5839 52.0677 42.5037 52.0677H39.3192C34.9922 52.0677 31.9198 52.3707 27.6525 47.638C21.9125 41.2711 16.6536 30.6778 15.7961 28.9323L22.4033 28.9286C22.5194 28.9737 22.768 29.0682 22.7827 29.0792L22.7902 29.0868C22.5487 28.908 22.8013 29.1583 22.8013 29.1583C22.8247 29.2161 22.8507 29.2727 22.8795 29.3278C22.8795 29.3278 24.1887 31.9175 25.8445 34.8235C27.4687 37.6724 28.6523 39.4521 29.7954 40.6281C30.3669 41.2161 30.9439 41.6877 31.715 41.954C32.4862 42.2203 33.4819 42.1226 34.1518 41.7506C35.5202 40.9921 35.7041 39.8734 35.9263 38.8954C36.1489 37.916 36.2375 36.8726 36.2798 35.8744C36.3617 33.937 36.2458 32.2602 36.2388 32.1567C36.2393 32.1204 36.248 31.4211 36.1384 30.5257C36.0262 29.6087 35.9011 28.4876 35.0818 27.3578L35.0781 27.3541C35.0724 27.3462 35.0652 27.3467 35.0595 27.339C36.1429 27.1817 37.0698 26.988 38.9955 27.0075ZM55.7999 28.8984L55.7738 28.9587C55.7698 28.961 55.7711 28.9559 55.7664 28.9587C55.7744 28.9432 55.7999 28.8984 55.7999 28.8984Z" fill="white"/>
</svg>
